<svg width="45" height="45" viewBox="0 0 45 45" fill="none" xmlns="http://www.w3.org/2000/svg">
<path opacity="0.15" d="M15 28.125C9.375 28.125 7.5 30 7.5 30V7.5C7.5 7.5 9.375 5.625 15 5.625C20.625 5.625 24.375 9.375 30 9.375C35.625 9.375 37.5 7.5 37.5 7.5V30C37.5 30 35.625 31.875 30 31.875C24.375 31.875 20.625 28.125 15 28.125Z" fill="#001A72"/>
<path d="M6.75 39.5833C6.75 39.9976 7.08579 40.3333 7.5 40.3333C7.91421 40.3333 8.25 39.9976 8.25 39.5833H6.75ZM7.5 7.70834L7.01986 7.13217C6.84887 7.27467 6.75 7.48576 6.75 7.70834H7.5ZM37.5 7.70833H38.25C38.25 7.41732 38.0817 7.15258 37.8181 7.02914C37.5546 6.90571 37.2434 6.94587 37.0199 7.13217L37.5 7.70833ZM37.5 30.2083L37.9801 30.7845C38.1511 30.642 38.25 30.4309 38.25 30.2083H37.5ZM8.25 39.5833V30.2083H6.75V39.5833H8.25ZM8.25 30.2083V7.70834H6.75V30.2083H8.25ZM36.75 7.70833V30.2083H38.25V7.70833H36.75ZM37.5 30.2083C37.0199 29.6322 37.0202 29.6319 37.0205 29.6316C37.0206 29.6315 37.0209 29.6313 37.0211 29.6312C37.0214 29.6309 37.0217 29.6307 37.0218 29.6306C37.0221 29.6303 37.0221 29.6303 37.0217 29.6306C37.021 29.6312 37.019 29.6328 37.0156 29.6355C37.0089 29.6409 36.9968 29.6504 36.9795 29.6636C36.9449 29.69 36.8894 29.7312 36.8134 29.7837C36.6614 29.8889 36.4278 30.0393 36.1165 30.2085C35.4936 30.5471 34.5618 30.9593 33.3494 31.2348C30.9388 31.7827 27.3662 31.8029 22.8354 29.5375L22.1646 30.8792C27.0088 33.3013 30.9362 33.3215 33.6818 32.6975C35.0476 32.3871 36.108 31.9204 36.8327 31.5265C37.1952 31.3295 37.4744 31.1504 37.6666 31.0175C37.7627 30.951 37.8372 30.896 37.8895 30.856C37.9157 30.8361 37.9364 30.8198 37.9515 30.8077C37.9591 30.8017 37.9653 30.7967 37.97 30.7928C37.9724 30.7909 37.9744 30.7892 37.9761 30.7878C37.977 30.7871 37.9777 30.7865 37.9784 30.7859C37.9787 30.7857 37.9792 30.7853 37.9793 30.7852C37.9797 30.7848 37.9801 30.7845 37.5 30.2083ZM22.8354 29.5375C17.9912 27.1154 14.0638 27.0952 11.3182 27.7192C9.9524 28.0296 8.89202 28.4963 8.16726 28.8902C7.80478 29.0872 7.52563 29.2663 7.33344 29.3992C7.23732 29.4657 7.16284 29.5207 7.11045 29.5606C7.08426 29.5806 7.06358 29.5969 7.04846 29.6089C7.0409 29.615 7.03474 29.62 7.02997 29.6239C7.02758 29.6258 7.02555 29.6275 7.02386 29.6289C7.02302 29.6296 7.02227 29.6302 7.0216 29.6307C7.02127 29.631 7.02083 29.6314 7.02067 29.6315C7.02025 29.6319 7.01986 29.6322 7.5 30.2083C7.98014 30.7845 7.97979 30.7848 7.97946 30.7851C7.97938 30.7851 7.97908 30.7854 7.97891 30.7855C7.97859 30.7858 7.97835 30.786 7.97819 30.7861C7.97788 30.7864 7.9779 30.7864 7.97826 30.7861C7.97897 30.7855 7.98101 30.7838 7.98438 30.7811C7.99113 30.7758 8.00317 30.7663 8.02047 30.7531C8.05506 30.7267 8.11058 30.6855 8.18658 30.633C8.33863 30.5278 8.57218 30.3773 8.88353 30.2081C9.50642 29.8696 10.4382 29.4574 11.6506 29.1819C14.0612 28.634 17.6338 28.6138 22.1646 30.8792L22.8354 29.5375ZM7.5 7.70834C7.98014 8.28451 7.97979 8.2848 7.97946 8.28507C7.97938 8.28513 7.97908 8.28539 7.97891 8.28552C7.97859 8.28579 7.97835 8.28599 7.97819 8.28612C7.97788 8.28638 7.9779 8.28636 7.97826 8.28607C7.97897 8.28549 7.98101 8.28383 7.98438 8.28114C7.99113 8.27575 8.00317 8.26625 8.02047 8.25305C8.05506 8.22666 8.11058 8.18551 8.18658 8.13296C8.33863 8.02782 8.57218 7.87734 8.88353 7.70813C9.50642 7.3696 10.4382 6.95741 11.6506 6.68187C14.0612 6.13401 17.6338 6.11375 22.1646 8.37915L22.8354 7.03751C17.9912 4.61542 14.0638 4.59516 11.3182 5.21917C9.9524 5.52957 8.89202 5.9963 8.16726 6.39019C7.80478 6.58719 7.52563 6.7663 7.33344 6.8992C7.23732 6.96567 7.16284 7.02065 7.11045 7.06063C7.08426 7.08062 7.06358 7.09687 7.04846 7.10894C7.0409 7.11497 7.03474 7.11996 7.02997 7.12385C7.02758 7.1258 7.02555 7.12747 7.02386 7.12886C7.02302 7.12955 7.02227 7.13018 7.0216 7.13073C7.02127 7.13101 7.02083 7.13137 7.02066 7.13151C7.02025 7.13185 7.01986 7.13217 7.5 7.70834ZM22.1646 8.37915C27.0088 10.8012 30.9362 10.8215 33.6818 10.1975C35.0476 9.8871 36.108 9.42038 36.8327 9.02648C37.1952 8.82948 37.4744 8.65037 37.6666 8.51747C37.7627 8.45101 37.8372 8.39602 37.8895 8.35605C37.9157 8.33605 37.9364 8.31981 37.9515 8.30774C37.9591 8.3017 37.9653 8.29671 37.97 8.29282C37.9724 8.29088 37.9744 8.28921 37.9761 8.28782C37.977 8.28712 37.9777 8.2865 37.9784 8.28594C37.9787 8.28567 37.9792 8.28531 37.9793 8.28517C37.9797 8.28483 37.9801 8.2845 37.5 7.70833C37.0199 7.13217 37.0202 7.13188 37.0205 7.13161C37.0206 7.13154 37.0209 7.13128 37.0211 7.13115C37.0214 7.13088 37.0217 7.13068 37.0218 7.13055C37.0221 7.1303 37.0221 7.13031 37.0217 7.1306C37.021 7.13118 37.019 7.13285 37.0156 7.13554C37.0089 7.14092 36.9968 7.15042 36.9795 7.16362C36.9449 7.19002 36.8894 7.23117 36.8134 7.28371C36.6614 7.38886 36.4278 7.53933 36.1165 7.70855C35.4936 8.04707 34.5618 8.45926 33.3494 8.7348C30.9388 9.28266 27.3662 9.30292 22.8354 7.03751L22.1646 8.37915Z" fill="#001A72"/>
</svg>
