<svg width="90" height="90" viewBox="0 0 90 90" fill="none" xmlns="http://www.w3.org/2000/svg">
<path d="M45 7.5C24.3 7.5 7.5 24.3 7.5 45C7.5 65.7 24.3 82.5 45 82.5C65.7 82.5 82.5 65.7 82.5 45C82.5 24.3 65.7 7.5 45 7.5ZM45 18.75C51.225 18.75 56.25 23.775 56.25 30C56.25 36.225 51.225 41.25 45 41.25C38.775 41.25 33.75 36.225 33.75 30C33.75 23.775 38.775 18.75 45 18.75ZM45 72C35.625 72 27.3375 67.2 22.5 59.925C22.6125 52.4625 37.5 48.375 45 48.375C52.4625 48.375 67.3875 52.4625 67.5 59.925C62.6625 67.2 54.375 72 45 72Z" fill="#667080"/>
</svg>
