<svg width="45" height="45" viewBox="0 0 45 45" fill="none" xmlns="http://www.w3.org/2000/svg">
<path d="M36.2888 20.0006C36.1538 19.3969 35.7788 18.8362 35.3475 18.6038C35.2163 18.5306 34.3688 18.4387 33.465 18.3994C31.9481 18.3319 31.7813 18.3019 31.305 18.0225C30.5456 17.5781 30.3375 17.0981 30.3338 15.7969C30.33 13.3087 29.295 10.9987 27.2475 8.91562C25.7925 7.42875 24.1631 6.42375 22.3088 5.86125C21.8663 5.72625 20.8688 5.67937 17.5369 5.64C12.3113 5.57812 11.1525 5.685 9.36938 6.39375C6.09188 7.70062 3.72938 10.455 2.87251 13.9875C2.70938 14.6494 2.67938 15.7125 2.64 21.8194C2.59313 29.4694 2.64751 30.5944 3.12376 32.1094C3.52126 33.3619 3.92063 34.1287 4.73813 35.2162C6.30376 37.2937 8.64376 38.7919 10.9894 39.2156C12.105 39.4163 25.86 39.4688 27.27 39.2756C29.7188 38.9419 31.6406 37.9594 33.4444 36.1181C34.7456 34.7869 35.5613 33.345 36.0956 31.4325C36.315 30.6375 36.3338 30.2513 36.375 25.5881C36.4069 22.0669 36.3788 20.4169 36.2888 20.0006ZM12.0131 15.2025C12.6 14.61 12.7613 14.5856 16.4456 14.5856C19.7531 14.5856 19.8619 14.5931 20.3475 14.8369C21.0506 15.1912 21.3563 15.6919 21.3563 16.4869C21.3563 17.2069 21.0694 17.7112 20.4319 18.1162C20.0869 18.3319 19.8825 18.3469 16.6425 18.3656C14.6419 18.3787 13.05 18.3412 12.8119 18.2756C11.5575 17.9306 11.0906 16.1325 12.0131 15.2025ZM26.4619 30.2719L25.3425 30.4556L19.5038 30.5212C14.3738 30.5831 12.9206 30.4875 12.6563 30.3713C12.1163 30.1388 11.6175 29.4862 11.5275 28.9088C11.4488 28.3612 11.7225 27.6037 12.1463 27.2212C12.6806 26.7394 12.9131 26.7225 19.4794 26.715C26.2331 26.7113 26.1975 26.7094 26.8388 27.3056C27.7425 28.1494 27.5531 29.6513 26.4619 30.2719Z" fill="#A5B6CA"/>
<path d="M35.1359 19.0585C35.1153 19.0534 35.0836 19.0468 35.0393 19.0391C34.9419 19.0221 34.8071 19.0039 34.642 18.986C34.3131 18.9503 33.8862 18.9182 33.4432 18.8989L33.4428 18.8989C32.6962 18.8657 32.2384 18.8406 31.9087 18.7829C31.5385 18.7182 31.3201 18.611 31.052 18.4538C30.6161 18.1986 30.2811 17.8975 30.0777 17.4308C29.8868 16.9929 29.8357 16.4597 29.8338 15.7983L29.8338 15.7976C29.8302 13.4627 28.8637 11.2732 26.8909 9.26612L26.8901 9.26533C25.4899 7.83443 23.9322 6.87621 22.1636 6.33972L22.1629 6.33949C22.0095 6.29271 21.7089 6.24796 20.9831 6.21423C20.2718 6.18117 19.1977 6.15966 17.531 6.13996L17.531 6.13996C12.2945 6.07796 11.2324 6.19131 9.55421 6.85833C6.43195 8.10344 4.17825 10.7255 3.35841 14.1054L3.35798 14.1071C3.29051 14.3809 3.24246 14.7639 3.20963 15.8763C3.17703 16.9812 3.15969 18.7672 3.13999 21.8226C3.09289 29.5106 3.15393 30.5378 3.60053 31.9588C3.9802 33.1549 4.35284 33.8716 5.13768 34.9156C6.63513 36.9025 8.8683 38.3242 11.0779 38.7235C11.1764 38.7412 11.4748 38.7634 11.9723 38.7842C12.4528 38.8042 13.0832 38.8219 13.8159 38.8369C15.2806 38.8669 17.1457 38.8863 19.0212 38.8933C20.8966 38.9003 22.7802 38.895 24.2819 38.876C25.8041 38.8567 26.8884 38.8232 27.2022 38.7803L27.2025 38.7802C29.5361 38.4622 31.3574 37.5339 33.0868 35.7686L35.1359 19.0585ZM35.1359 19.0585C35.3988 19.2154 35.6906 19.6196 35.8003 20.1077C35.8324 20.2579 35.8631 20.7173 35.8777 21.6379C35.8918 22.5362 35.891 23.824 35.875 25.5836V25.5837C35.8334 30.2846 35.8109 30.5847 35.6138 31.2989C35.1005 33.1354 34.3253 34.5014 33.0872 35.7682L35.1359 19.0585ZM20.5718 14.39L20.5725 14.3904C20.9833 14.5974 21.317 14.8674 21.5422 15.2359C21.7671 15.6039 21.8563 16.0251 21.8563 16.4869C21.8563 16.9157 21.77 17.3105 21.568 17.6665C21.3668 18.0209 21.0698 18.3034 20.7 18.5383L20.6969 18.5403C20.586 18.6096 20.4623 18.677 20.2805 18.7262C20.1142 18.7712 19.916 18.7964 19.6558 18.8137C19.1376 18.848 18.2573 18.8563 16.6458 18.8656C16.6457 18.8656 16.6455 18.8656 16.6454 18.8656L16.6425 18.3656L20.5718 14.39ZM20.5718 14.39C20.4444 14.326 20.3092 14.2607 20.1278 14.2119C19.9519 14.1646 19.7522 14.138 19.487 14.1209C18.9651 14.0872 18.0895 14.0856 16.4456 14.0856C14.6235 14.0856 13.6166 14.0904 12.9987 14.1767C12.6763 14.2217 12.4209 14.293 12.1937 14.4183C11.9704 14.5415 11.8071 14.7 11.6582 14.8504C11.0472 15.4663 10.9195 16.3425 11.1122 17.0842C11.3049 17.8256 11.8427 18.5275 12.679 18.7577L20.5718 14.39ZM35.1565 19.0641C35.1565 19.0641 35.1551 19.0637 35.1524 19.0628C35.1552 19.0636 35.1565 19.0641 35.1565 19.0641ZM26.5429 30.7653L26.6312 30.7508L26.7091 30.7065C28.0846 29.9242 28.3377 28.021 27.18 26.9401L27.1792 26.9395C27.1718 26.9326 27.1644 26.9256 27.1568 26.9186C27.0087 26.7805 26.8359 26.6194 26.5674 26.5027C26.2973 26.3853 25.9635 26.3249 25.4913 26.2869C24.5613 26.2122 22.883 26.2131 19.6026 26.2149L19.4791 26.215H19.4788C16.2065 26.2187 14.4838 26.2245 13.5164 26.2914C13.034 26.3248 12.6947 26.3755 12.4297 26.4677C12.1387 26.569 11.9657 26.7108 11.8114 26.8499L11.8112 26.8501C11.524 27.1093 11.3105 27.4708 11.1788 27.8317C11.0473 28.1919 10.9784 28.6033 11.0326 28.9799L11.0326 28.9799L11.0335 28.9857C11.0944 29.3765 11.2854 29.7605 11.5269 30.0743C11.7679 30.3875 12.0905 30.6716 12.4568 30.8297C12.6072 30.8954 12.8256 30.9268 13.0685 30.9501C13.338 30.976 13.7172 30.9973 14.2406 31.0128C15.2887 31.0438 16.9427 31.0522 19.5098 31.0212L25.3481 30.9556L25.3861 30.9552L25.4235 30.949L26.5429 30.7653Z" stroke="black" stroke-opacity="0.54"/>
</svg>
