<svg width="47" height="45" viewBox="0 0 47 45" fill="none" xmlns="http://www.w3.org/2000/svg">
<path opacity="0.15" d="M8.12469 18.75L23.3815 5.625L38.6382 18.75L38.6382 37.5H29.1027V30C29.1027 28.5082 28.5 27.0774 27.427 26.0225C26.3541 24.9676 24.8988 24.375 23.3815 24.375C21.8641 24.375 20.4088 24.9676 19.3359 26.0225C18.2629 27.0774 17.6602 28.5082 17.6602 30V37.5H8.1247L8.12469 18.75Z" fill="#001A72"/>
<path d="M8.12469 18.75L23.3814 5.625L38.6382 18.75L38.6382 37.5H29.1027V30C29.1027 28.5082 28.5 27.0774 27.427 26.0225C26.3541 24.9676 24.8988 24.375 23.3814 24.375C21.8641 24.375 20.4088 24.9676 19.3359 26.0225C18.2629 27.0774 17.6602 28.5082 17.6602 30V37.5H8.1247L8.12469 18.75Z" stroke="#001A72" stroke-width="1.5" stroke-linecap="round" stroke-linejoin="round"/>
</svg>
