<svg width="50" height="50" viewBox="0 0 50 50" fill="none" xmlns="http://www.w3.org/2000/svg">
<path d="M45.625 39.0694L45.1528 38.6528C43.8131 37.4592 42.6405 36.0903 41.6666 34.5833C40.6031 32.5035 39.9656 30.2323 39.7916 27.9028V21.0417C39.8008 17.3828 38.4736 13.8465 36.0593 11.0972C33.6451 8.34787 30.3099 6.5748 26.6805 6.1111V4.31944C26.6805 3.82768 26.4852 3.35607 26.1375 3.00834C25.7897 2.66062 25.3181 2.46527 24.8264 2.46527C24.3346 2.46527 23.863 2.66062 23.5153 3.00834C23.1675 3.35607 22.9722 3.82768 22.9722 4.31944V6.13888C19.3753 6.636 16.0805 8.41979 13.6979 11.1599C11.3154 13.8999 10.0065 17.4106 10.0139 21.0417V27.9028C9.83991 30.2323 9.20244 32.5035 8.13886 34.5833C7.18175 36.0866 6.02802 37.4552 4.70831 38.6528L4.23608 39.0694V42.9861H45.625V39.0694Z" fill="#667080"/>
<path d="M21.2778 44.4445C21.3996 45.3248 21.8358 46.1314 22.5059 46.7152C23.1761 47.299 24.0348 47.6206 24.9236 47.6206C25.8124 47.6206 26.6711 47.299 27.3413 46.7152C28.0114 46.1314 28.4476 45.3248 28.5694 44.4445H21.2778Z" fill="#667080"/>
<path d="M46.5 31.3787C46.5 37.9269 42.3789 42.5917 38 42.5917C33.6211 42.5917 29.5 37.9269 29.5 31.3787C29.5 24.8305 33.6211 20.1657 38 20.1657C42.3789 20.1657 46.5 24.8305 46.5 31.3787Z" fill="#D9D9D9" stroke="white" stroke-width="3"/>
</svg>
