<svg width="45" height="45" viewBox="0 0 45 45" fill="none" xmlns="http://www.w3.org/2000/svg">
<path opacity="0.15" d="M22.5 20.625C26.6421 20.625 30 17.2671 30 13.125C30 8.98286 26.6421 5.625 22.5 5.625C18.3579 5.625 15 8.98286 15 13.125C15 17.2671 18.3579 20.625 22.5 20.625Z" fill="#001A72"/>
<path d="M38.5371 24.375C38.5371 24.7892 38.8729 25.125 39.2871 25.125C39.7013 25.125 40.0371 24.7892 40.0371 24.375H38.5371ZM40.0371 24.3656C40.0371 23.9514 39.7013 23.6156 39.2871 23.6156C38.8729 23.6156 38.5371 23.9514 38.5371 24.3656H40.0371ZM34.911 13.6455C34.7842 14.0398 35.0011 14.4623 35.3955 14.589C35.7898 14.7158 36.2123 14.4989 36.339 14.1045L34.911 13.6455ZM38.6353 19.5634C38.5668 19.9719 38.8424 20.3586 39.2509 20.4272C39.6594 20.4957 40.0461 20.2201 40.1147 19.8116L38.6353 19.5634ZM37.5 39.375V40.125C37.9142 40.125 38.25 39.7892 38.25 39.375H37.5ZM7.5 39.375H6.75C6.75 39.7892 7.08579 40.125 7.5 40.125V39.375ZM40.0371 24.375V24.3656H38.5371V24.375H40.0371ZM39.2872 12C41.009 12 42.375 13.3594 42.375 15H43.875C43.875 12.4984 41.8045 10.5 39.2872 10.5V12ZM36.339 14.1045C36.7283 12.8935 37.8943 12 39.2872 12V10.5C37.2431 10.5 35.4998 11.8137 34.911 13.6455L36.339 14.1045ZM42.375 15C42.375 15.6052 42.2197 15.8815 42.0639 16.0493C41.8715 16.2566 41.5942 16.3975 41.1352 16.6086C40.7191 16.8 40.1519 17.0507 39.6721 17.4995C39.1649 17.9738 38.7925 18.6269 38.6353 19.5634L40.1147 19.8116C40.2223 19.1701 40.4511 18.8248 40.6967 18.595C40.9696 18.3398 41.3068 18.1808 41.762 17.9714C42.1743 17.7817 42.7353 17.5308 43.1632 17.0699C43.6278 16.5694 43.875 15.9011 43.875 15H42.375ZM15 28.875H30V27.375H15V28.875ZM36.75 35.625V39.375H38.25V35.625H36.75ZM8.25 39.375V35.625H6.75V39.375H8.25ZM30 28.875C33.7279 28.875 36.75 31.8971 36.75 35.625H38.25C38.25 31.0687 34.5563 27.375 30 27.375V28.875ZM15 27.375C10.4437 27.375 6.75 31.0687 6.75 35.625H8.25C8.25 31.8971 11.2721 28.875 15 28.875V27.375ZM29.25 13.125C29.25 16.8529 26.2279 19.875 22.5 19.875V21.375C27.0563 21.375 30.75 17.6813 30.75 13.125H29.25ZM22.5 19.875C18.7721 19.875 15.75 16.8529 15.75 13.125H14.25C14.25 17.6813 17.9437 21.375 22.5 21.375V19.875ZM15.75 13.125C15.75 9.39708 18.7721 6.375 22.5 6.375V4.875C17.9437 4.875 14.25 8.56865 14.25 13.125H15.75ZM22.5 6.375C26.2279 6.375 29.25 9.39708 29.25 13.125H30.75C30.75 8.56865 27.0563 4.875 22.5 4.875V6.375ZM7.5 40.125H37.5V38.625H7.5V40.125Z" fill="#001A72"/>
</svg>
