<svg width="45" height="45" viewBox="0 0 45 45" fill="none" xmlns="http://www.w3.org/2000/svg">
<path opacity="0.15" d="M22.5 20.625C26.6421 20.625 30 17.2671 30 13.125C30 8.98286 26.6421 5.625 22.5 5.625C18.3579 5.625 15 8.98286 15 13.125C15 17.2671 18.3579 20.625 22.5 20.625Z" fill="#001A72"/>
<path d="M41.7803 17.4053C42.0732 17.1124 42.0732 16.6376 41.7803 16.3447C41.4874 16.0518 41.0126 16.0518 40.7197 16.3447L41.7803 17.4053ZM33.2197 23.8447C32.9268 24.1376 32.9268 24.6124 33.2197 24.9053C33.5126 25.1982 33.9874 25.1982 34.2803 24.9053L33.2197 23.8447ZM34.2803 16.3447C33.9874 16.0518 33.5126 16.0518 33.2197 16.3447C32.9268 16.6376 32.9268 17.1124 33.2197 17.4053L34.2803 16.3447ZM40.7197 24.9053C41.0126 25.1982 41.4874 25.1982 41.7803 24.9053C42.0732 24.6124 42.0732 24.1376 41.7803 23.8447L40.7197 24.9053ZM37.5 39.375V40.125C37.9142 40.125 38.25 39.7892 38.25 39.375H37.5ZM7.5 39.375H6.75C6.75 39.7892 7.08579 40.125 7.5 40.125V39.375ZM40.7197 16.3447L33.2197 23.8447L34.2803 24.9053L41.7803 17.4053L40.7197 16.3447ZM33.2197 17.4053L40.7197 24.9053L41.7803 23.8447L34.2803 16.3447L33.2197 17.4053ZM15 28.875H30V27.375H15V28.875ZM36.75 35.625V39.375H38.25V35.625H36.75ZM8.25 39.375V35.625H6.75V39.375H8.25ZM30 28.875C33.7279 28.875 36.75 31.8971 36.75 35.625H38.25C38.25 31.0687 34.5563 27.375 30 27.375V28.875ZM15 27.375C10.4437 27.375 6.75 31.0687 6.75 35.625H8.25C8.25 31.8971 11.2721 28.875 15 28.875V27.375ZM29.25 13.125C29.25 16.8529 26.2279 19.875 22.5 19.875V21.375C27.0563 21.375 30.75 17.6813 30.75 13.125H29.25ZM22.5 19.875C18.7721 19.875 15.75 16.8529 15.75 13.125H14.25C14.25 17.6813 17.9437 21.375 22.5 21.375V19.875ZM15.75 13.125C15.75 9.39708 18.7721 6.375 22.5 6.375V4.875C17.9437 4.875 14.25 8.56865 14.25 13.125H15.75ZM22.5 6.375C26.2279 6.375 29.25 9.39708 29.25 13.125H30.75C30.75 8.56865 27.0563 4.875 22.5 4.875V6.375ZM7.5 40.125H37.5V38.625H7.5V40.125Z" fill="#001A72"/>
</svg>
