<svg width="573" height="435" viewBox="0 0 573 435" fill="none" xmlns="http://www.w3.org/2000/svg">
<g clip-path="url(#clip0_304_3325)">
<path d="M70.3512 359.923C69.5858 358.823 68.8334 357.694 68.1146 356.566L69.2755 355.869C69.9846 356.982 70.727 358.097 71.4821 359.182L70.3512 359.923Z" fill="#3F3D56"/>
<path d="M63.9993 349.467C62.7333 347.055 61.5567 344.564 60.5024 342.063L61.7653 341.561C62.806 344.029 63.9666 346.486 65.2155 348.865L63.9993 349.467ZM57.65 334.403C56.8126 331.824 56.0765 329.179 55.4617 326.541L56.7933 326.248C57.3994 328.851 58.1255 331.461 58.9516 334.005L57.65 334.403ZM53.9526 318.529C53.5657 315.856 53.2885 313.13 53.1279 310.426L54.4907 310.35C54.6487 313.018 54.9226 315.707 55.3041 318.345L53.9526 318.529ZM54.3501 302.315L52.9859 302.284C53.0516 299.576 53.2328 296.842 53.5244 294.159L54.8819 294.298C54.594 296.946 54.4151 299.643 54.3501 302.315H54.3501ZM56.0885 286.352L54.7476 286.105C55.2675 283.448 55.9083 280.78 56.6523 278.175L57.9679 278.529C57.2335 281.099 56.6014 283.731 56.0885 286.352ZM60.5091 270.884L59.2288 270.426C60.1938 267.888 61.2812 265.358 62.4604 262.905L63.6974 263.465C62.5337 265.885 61.4611 268.381 60.5091 270.884ZM247.433 266.79C246.366 264.334 245.178 261.889 243.903 259.523L245.113 258.909C246.405 261.308 247.609 263.786 248.69 266.275L247.433 266.79ZM67.5064 256.328L66.3215 255.671C67.7037 253.324 69.2049 251.003 70.7833 248.772L71.9083 249.521C70.3512 251.723 68.87 254.013 67.5064 256.328ZM239.768 252.564C238.298 250.31 236.713 248.088 235.057 245.958L236.146 245.16C237.825 247.319 239.432 249.571 240.921 251.855L239.768 252.564ZM76.8717 243.089L75.8134 242.252C77.5741 240.155 79.4455 238.104 81.3765 236.155L82.3602 237.073C80.4551 238.996 78.6084 241.02 76.8717 243.089ZM229.803 239.749C227.972 237.758 226.034 235.816 224.043 233.978L224.983 233.018C227.002 234.881 228.966 236.849 230.821 238.867L229.803 239.749ZM88.3372 231.513L87.4342 230.52C89.5225 228.731 91.7134 227.004 93.946 225.387L94.7624 226.448C92.5595 228.044 90.3979 229.748 88.3372 231.513ZM217.815 228.683C215.674 227.008 213.435 225.399 211.161 223.901L211.927 222.805C214.233 224.324 216.501 225.954 218.671 227.651L217.815 228.683ZM101.592 221.912L100.868 220.789C103.232 219.354 105.683 217.999 108.156 216.76L108.782 217.938C106.343 219.16 103.924 220.497 101.592 221.912V221.912ZM204.125 219.666C201.727 218.353 199.246 217.122 196.752 216.009L197.323 214.805C199.851 215.934 202.365 217.181 204.795 218.512L204.125 219.666ZM116.284 214.553L115.76 213.33C118.333 212.293 120.98 211.348 123.63 210.522L124.047 211.784C121.433 212.598 118.821 213.53 116.284 214.553L116.284 214.553ZM189.093 212.955C186.51 212.045 183.854 211.229 181.2 210.529L181.557 209.251C184.248 209.96 186.94 210.787 189.559 211.71L189.093 212.955ZM132.025 209.647L131.717 208.356C134.427 207.747 137.201 207.239 139.96 206.848L140.158 208.159C137.435 208.545 134.699 209.045 132.025 209.647L132.025 209.647ZM173.126 208.747C170.428 208.265 167.671 207.885 164.931 207.619L165.067 206.301C167.844 206.571 170.639 206.955 173.373 207.444L173.126 208.747ZM148.389 207.326L148.303 206.004C151.079 205.834 153.91 205.773 156.691 205.822L156.667 207.147C153.92 207.098 151.129 207.158 148.389 207.326V207.326Z" fill="#3F3D56"/>
<path d="M251.543 278.188C251.178 276.927 250.781 275.657 250.362 274.411L251.66 274C252.084 275.263 252.487 276.551 252.857 277.829L251.543 278.188Z" fill="#3F3D56"/>
<path d="M277.343 235.797H275.978C275.978 234.471 276.002 233.126 276.049 231.8L277.414 231.845C277.367 233.157 277.343 234.486 277.343 235.797Z" fill="#3F3D56"/>
<path d="M277.992 223.88L276.635 223.739C276.927 221.072 277.323 218.382 277.811 215.746L279.154 215.98C278.672 218.585 278.281 221.243 277.992 223.88ZM280.898 208.181L279.576 207.854C280.259 205.254 281.049 202.647 281.922 200.106L283.217 200.525C282.353 203.037 281.573 205.612 280.898 208.181ZM498.571 194.205C497.551 191.747 496.425 189.294 495.226 186.916L496.452 186.334C497.666 188.741 498.805 191.222 499.838 193.71L498.571 194.205ZM286.102 193.044L284.842 192.535C285.903 190.06 287.072 187.589 288.316 185.19L289.535 185.786C288.305 188.156 287.15 190.598 286.102 193.044ZM491.348 179.878C489.976 177.589 488.501 175.317 486.962 173.127L488.089 172.381C489.647 174.597 491.14 176.895 492.528 179.211L491.348 179.878ZM293.496 178.787L292.324 178.108C293.739 175.808 295.26 173.525 296.845 171.323L297.964 172.082C296.397 174.258 294.894 176.514 293.496 178.787V178.787ZM482.089 166.698C480.391 164.618 478.597 162.574 476.756 160.621L477.762 159.727C479.626 161.703 481.442 163.771 483.159 165.875L482.089 166.698ZM302.913 165.705L301.853 164.871C303.594 162.787 305.434 160.738 307.321 158.782L308.318 159.688C306.452 161.621 304.634 163.646 302.913 165.705V165.705ZM470.99 154.929C469.006 153.106 466.931 151.329 464.821 149.649L465.686 148.625C467.821 150.325 469.921 152.122 471.929 153.967L470.99 154.929ZM314.15 154.06L313.222 153.088C315.249 151.267 317.369 149.493 319.524 147.816L320.378 148.85C318.248 150.507 316.152 152.26 314.15 154.06L314.15 154.06ZM458.28 144.81C456.05 143.279 453.735 141.807 451.4 140.436L452.106 139.303C454.469 140.69 456.812 142.179 459.068 143.728L458.28 144.81ZM326.972 144.084L326.197 142.994C328.469 141.471 330.827 140.009 333.206 138.648L333.899 139.789C331.548 141.134 329.218 142.579 326.972 144.084ZM444.214 136.552C441.781 135.346 439.273 134.211 436.759 133.179L437.291 131.959C439.835 133.003 442.373 134.152 444.835 135.372L444.214 136.552ZM341.125 135.987L340.518 134.801C342.99 133.609 345.539 132.49 348.093 131.474L348.611 132.7C346.086 133.704 343.568 134.81 341.125 135.987H341.125ZM429.073 130.337C426.491 129.483 423.841 128.71 421.196 128.039L421.541 126.758C424.218 127.437 426.9 128.219 429.513 129.082L429.073 130.337ZM356.318 129.945L355.893 128.686C358.516 127.852 361.206 127.099 363.888 126.449L364.219 127.734C361.568 128.376 358.91 129.12 356.318 129.945ZM413.17 126.301C410.486 125.818 407.749 125.423 405.036 125.127L405.188 123.811C407.934 124.11 410.703 124.509 413.419 124.998L413.17 126.301ZM372.263 126.083L372.029 124.778C374.748 124.318 377.521 123.949 380.271 123.678L380.408 124.997C377.691 125.263 374.95 125.629 372.263 126.083ZM396.837 124.52C394.104 124.412 391.325 124.398 388.613 124.476L388.572 123.152C391.317 123.073 394.127 123.087 396.893 123.196L396.837 124.52Z" fill="#3F3D56"/>
<path d="M502.564 205.572C502.199 204.312 501.804 203.039 501.392 201.789L502.692 201.385C503.109 202.65 503.508 203.938 503.878 205.213L502.564 205.572Z" fill="#3F3D56"/>
<path d="M217.727 265.49L358.045 342.277L192.35 435L53.5245 355.316L217.727 265.49Z" fill="#3F3D56"/>
<path d="M432.682 151.035L573 227.821L407.305 320.545L268.48 240.861L432.682 151.035Z" fill="#3F3D56"/>
<path d="M217.727 258.247L358.045 335.033L192.35 427.756L53.5245 348.072L217.727 258.247Z" fill="#D0CDE1"/>
<path d="M432.682 143.791L573 220.578L407.305 313.301L268.48 233.617L432.682 143.791Z" fill="#D0CDE1"/>
<path d="M465.301 122.15C469.94 117.094 473.245 111.018 474.929 104.447C476.613 97.8761 476.626 91.0062 474.967 84.4291C473.309 77.8519 470.028 71.7644 465.408 66.6908C460.788 61.6171 454.966 57.7093 448.445 55.3038C454.265 52.0354 458.813 46.9947 461.382 40.9632C463.951 34.9316 464.399 28.2459 462.655 21.9424C460.912 15.6389 457.075 10.0695 451.739 6.09743C446.403 2.12539 439.866 -0.0274658 433.142 -0.0274658C426.417 -0.0274658 419.88 2.12539 414.544 6.09743C409.208 10.0695 405.371 15.6389 403.628 21.9424C401.884 28.2459 402.332 34.9316 404.901 40.9632C407.47 46.9947 412.018 52.0354 417.838 55.3038C411.324 57.7064 405.509 61.6078 400.891 66.673C396.273 71.7382 392.991 77.8157 391.327 84.3835C389.663 90.9512 389.666 97.8129 391.337 104.379C393.008 110.945 396.297 117.019 400.92 122.08C390.033 128.824 381.691 138.811 377.146 150.544C372.601 162.277 372.096 175.124 375.709 187.159C379.321 199.194 386.855 209.768 397.182 217.297C407.508 224.825 420.071 228.902 432.986 228.916C445.901 228.93 458.474 224.881 468.818 217.375C479.162 209.869 486.72 199.311 490.36 187.285C494.001 175.258 493.526 162.41 489.008 150.666C484.49 138.923 476.172 128.918 465.301 122.15Z" fill="#3F3D56"/>
<path d="M254.32 254.533C254.32 285.101 235.599 295.773 212.502 295.773C211.967 295.773 211.432 295.766 210.901 295.754C209.831 295.732 208.769 295.683 207.722 295.612C186.876 294.182 170.684 282.96 170.684 254.533C170.684 225.119 209.411 187.999 212.329 185.246C212.329 185.246 212.329 185.245 212.329 185.245C212.329 185.244 212.33 185.244 212.33 185.244C212.33 185.243 212.331 185.243 212.331 185.243C212.332 185.243 212.332 185.243 212.333 185.243C212.444 185.134 212.502 185.082 212.502 185.082C212.502 185.082 254.32 223.969 254.32 254.533Z" fill="#D0CDE1"/>
<path d="M210.978 291.096L226.273 270.357L210.939 293.375L210.901 295.754C209.831 295.732 208.769 295.683 207.722 295.612L209.369 265.033L209.358 264.794L209.384 264.753L209.542 261.862L194.17 238.788L209.588 259.695L209.627 260.308L210.87 237.204L197.711 213.36L211.032 233.151L212.329 185.246L212.333 185.082V185.243L212.117 223.016L225.219 208.04L212.063 226.27L211.717 246.957L223.952 227.103L211.667 250.002L211.474 261.503L229.229 233.868L211.405 265.515L210.978 291.096Z" fill="#3F3D56"/>
<path d="M125.943 309.587C125.943 340.155 107.223 350.827 84.1259 350.827C83.5909 350.827 83.0559 350.82 82.5248 350.809C81.4548 350.786 80.3925 350.738 79.3457 350.667C58.5004 349.236 42.3083 338.015 42.3083 309.587C42.3083 280.174 81.0353 243.054 83.9527 240.301C83.9527 240.3 83.9528 240.3 83.953 240.299C83.9532 240.299 83.9534 240.298 83.9538 240.298C83.9542 240.298 83.9546 240.297 83.9551 240.297C83.9555 240.297 83.956 240.297 83.9566 240.297C84.0682 240.189 84.1259 240.136 84.1259 240.136C84.1259 240.136 125.943 279.023 125.943 309.587Z" fill="#D0CDE1"/>
<path d="M82.6018 346.151L97.897 325.411L82.5633 348.429L82.5248 350.809C81.4548 350.786 80.3926 350.738 79.3457 350.667L80.993 320.088L80.9814 319.849L81.0084 319.808L81.1661 316.916L65.7939 293.842L81.2124 314.75L81.2509 315.362L82.494 292.258L69.3349 268.414L82.6557 288.205L83.9527 240.301L83.9566 240.136V240.297L83.741 278.071L96.8425 263.095L83.6871 281.324L83.3408 302.012L95.5762 282.157L83.2907 305.056L83.0983 316.558L100.853 288.922L83.029 320.57L82.6018 346.151Z" fill="#3F3D56"/>
<path d="M334.138 215.985C329.927 215.985 325.81 217.197 322.308 219.468C318.807 221.739 316.078 224.967 314.466 228.743C312.854 232.519 312.433 236.674 313.254 240.683C314.076 244.692 316.104 248.375 319.082 251.265C322.06 254.155 325.854 256.123 329.984 256.921C334.115 257.718 338.396 257.309 342.287 255.745C346.178 254.181 349.503 251.532 351.843 248.133C354.183 244.735 355.431 240.739 355.431 236.652C355.431 233.938 354.881 231.25 353.811 228.743C352.74 226.236 351.172 223.957 349.195 222.038C347.218 220.119 344.87 218.597 342.287 217.558C339.703 216.52 336.935 215.985 334.138 215.985ZM335.437 238.416C334.615 238.416 333.812 238.179 333.128 237.736C332.445 237.293 331.913 236.663 331.598 235.926C331.284 235.19 331.201 234.379 331.362 233.597C331.522 232.814 331.918 232.096 332.499 231.532C333.08 230.968 333.82 230.584 334.626 230.428C335.432 230.273 336.267 230.353 337.027 230.658C337.786 230.963 338.435 231.48 338.891 232.143C339.348 232.806 339.591 233.586 339.591 234.383C339.591 235.453 339.154 236.478 338.374 237.235C337.595 237.991 336.539 238.416 335.437 238.416Z" fill="#F2F2F2"/>
<path d="M356.712 201.316C356.242 201.812 347.601 209.791 347.601 209.791C347.601 209.791 348.46 215.361 357.705 216.052L373.114 217.204C373.114 217.204 376.027 227.577 379.49 230.893C382.953 234.208 381.363 234.393 382.663 236.009C383.963 237.624 382.139 238.057 384.111 238.214C386.084 238.371 390.16 236.056 390.204 234.266C390.206 233.637 390.061 233.017 389.781 232.45C389.501 231.884 389.092 231.386 388.586 230.994C388.075 230.538 386.778 226.179 386 225.257C385.223 224.335 382.279 213.247 382.279 213.247C382.279 213.247 379.34 207.883 375.267 207.455C371.193 207.027 366.661 205.104 366.661 205.104" fill="#2F2E41"/>
<path opacity="0.1" d="M356.712 201.316C356.242 201.812 347.601 209.791 347.601 209.791C347.601 209.791 348.46 215.361 357.705 216.052L373.114 217.204C373.114 217.204 376.027 227.577 379.49 230.893C382.953 234.208 381.363 234.393 382.663 236.009C383.963 237.624 382.139 238.057 384.111 238.214C386.084 238.371 390.16 236.056 390.204 234.266C390.206 233.637 390.061 233.017 389.781 232.45C389.501 231.884 389.092 231.386 388.586 230.994C388.075 230.538 386.778 226.179 386 225.257C385.223 224.335 382.279 213.247 382.279 213.247C382.279 213.247 379.34 207.883 375.267 207.455C371.193 207.027 366.661 205.104 366.661 205.104" fill="black"/>
<path d="M371.659 169.139C371.659 169.139 374.902 160.588 377.121 163.312C379.341 166.037 373.55 170.512 373.55 170.512L371.659 169.139Z" fill="#A0616A"/>
<path d="M354.577 173.604L356.423 172.845C356.423 172.845 359.775 176.259 361.106 176.894C362.437 177.529 366.074 179.066 366.557 179.319C367.041 179.571 372.514 170.173 371.205 168.823C371.205 168.823 373.655 169.68 374.771 169.356C374.771 169.356 371.986 182.458 371.562 184.234C371.139 186.009 370.15 186.218 368.305 186.284C366.461 186.349 355.262 183.16 355.262 183.16L354.577 173.604Z" fill="#575A89"/>
<path d="M383.064 237.092C383.064 237.092 383.635 238.869 383.381 239.154C383.126 239.438 382.382 244.297 385.44 243.979C388.499 243.661 389.97 242.705 390.745 242.758C391.519 242.812 403.012 238.92 402.441 237.143C401.871 235.366 396.124 237.312 396.124 237.312C396.124 237.312 389.596 236.107 388.064 234.717C386.531 233.327 383.064 237.092 383.064 237.092Z" fill="#2F2E41"/>
<path opacity="0.1" d="M383.064 237.092C383.064 237.092 383.635 238.869 383.381 239.154C383.126 239.438 382.382 244.297 385.44 243.979C388.499 243.661 389.97 242.705 390.745 242.758C391.519 242.812 403.012 238.92 402.441 237.143C401.871 235.366 396.124 237.312 396.124 237.312C396.124 237.312 389.596 236.107 388.064 234.717C386.531 233.327 383.064 237.092 383.064 237.092Z" fill="black"/>
<path d="M377.205 239.707C377.205 239.707 379.05 247.509 380.403 247.429C381.756 247.35 391.311 242.837 392.487 241.943C393.996 240.795 393.936 238.767 392.204 239.193C390.471 239.619 385.571 239.237 384.738 238.378L382.596 236.17L377.205 239.707Z" fill="#2F2E41"/>
<path d="M358.29 196.36C357.784 196.822 342.407 209.483 342.407 209.483C342.407 209.483 343.665 217.668 352.835 219.01C362.004 220.351 367.297 218.676 367.297 218.676C367.297 218.676 369.425 229.228 372.631 232.778C375.836 236.329 374.237 236.401 375.412 238.105C376.587 239.808 374.736 240.111 376.692 240.407C378.647 240.703 382.886 238.681 383.064 236.899C383.113 236.272 383.015 235.643 382.778 235.058C382.541 234.473 382.171 233.948 381.696 233.521C381.22 233.03 380.253 228.591 379.546 227.617C378.839 226.643 376.734 215.377 376.734 215.377C376.734 215.377 374.205 209.819 370.174 209.105C366.144 208.391 361.768 206.153 361.768 206.153" fill="#2F2E41"/>
<path d="M344.135 168.931C348.162 168.931 351.426 165.763 351.426 161.855C351.426 157.946 348.162 154.778 344.135 154.778C340.108 154.778 336.843 157.946 336.843 161.855C336.843 165.763 340.108 168.931 344.135 168.931Z" fill="#A0616A"/>
<path d="M340.313 166.272C340.313 166.272 341.406 170.595 339.741 172.811C338.075 175.027 350.881 173.972 350.881 173.972C350.881 173.972 347.415 166.957 348.694 165.326C349.973 163.695 340.313 166.272 340.313 166.272Z" fill="#A0616A"/>
<path d="M356.681 173.069C358.228 174.664 357.701 183.708 357.701 183.708L356.713 191.784C356.713 191.784 357.895 193.25 357.509 193.834C357.122 194.419 356.49 194.996 357.709 195.27C358.929 195.545 361.74 195.985 360.84 197.269C360.547 197.633 360.232 197.981 359.898 198.311C359.611 198.605 359.27 198.947 358.884 199.328C357.979 200.214 356.829 201.305 355.553 202.454C355.191 202.782 354.821 203.113 354.441 203.447C349.572 207.722 343.518 212.246 342.265 210.075C340.168 206.437 338.71 205.918 338.807 202.822C338.903 199.725 336.203 191.779 336.203 191.779C336.203 191.779 333.064 178.218 337.488 174.176L338.18 173.102C338.501 172.602 338.975 172.214 339.537 171.991C340.098 171.768 340.717 171.722 341.307 171.859C343.466 172.36 346.777 173.052 348.211 172.94C350.427 172.767 349.941 171.883 349.941 171.883C349.941 171.883 355.134 171.475 356.681 173.069Z" fill="#575A89"/>
<path d="M363.518 201.997C363.518 201.997 372.539 204.168 371.215 207.229C369.892 210.289 362.083 204.696 362.083 204.696L363.518 201.997Z" fill="#A0616A"/>
<path d="M340.1 164.444C340.279 164.232 340.102 163.924 339.945 163.696C339.108 162.476 338.948 160.74 339.869 159.578C340.232 159.145 340.686 158.792 341.201 158.544C341.923 158.172 342.712 157.937 343.525 157.851C343.958 157.845 344.385 157.763 344.788 157.61C345.042 157.485 346.242 157.077 346.5 156.958C347.066 156.697 347.854 156.81 348.216 156.313C348.563 155.839 348.239 155.188 347.902 154.707C347.134 153.61 345.192 152.701 343.858 152.413C342.824 152.261 341.768 152.443 340.851 152.931C339.77 153.451 338.744 154.074 337.788 154.79C336.422 155.668 335.264 156.819 334.395 158.168C333.607 159.556 333.417 161.364 334.308 162.693C334.493 162.97 334.72 163.22 334.894 163.503C335.317 164.196 335.394 165.034 335.693 165.785C335.916 166.334 336.254 166.832 336.688 167.246C337.121 167.66 337.638 167.981 338.207 168.189C339.119 168.517 340.241 168.607 340.779 169.393L341.031 167.755C341.096 167.548 341.087 167.326 341.004 167.126C340.921 166.925 340.77 166.758 340.576 166.653L339.284 165.597C339.027 165.427 338.831 165.182 338.726 164.898C338.447 163.767 339.8 164.796 340.1 164.444Z" fill="#2F2E41"/>
<path opacity="0.1" d="M353.032 195.61L358.884 199.328C357.723 200.467 356.156 201.94 354.441 203.447C352.817 202.598 351.16 201.68 349.679 200.756C344.257 197.379 339.609 188.899 337.526 184.785C335.443 180.671 337.139 177.503 337.139 177.503C338.518 176.91 339.978 176.511 341.474 176.319C344.188 175.921 353.032 195.61 353.032 195.61Z" fill="black"/>
<path opacity="0.1" d="M353.805 194.441L359.898 198.311C359.611 198.605 359.27 198.947 358.884 199.328C357.979 200.214 356.829 201.305 355.553 202.454C353.822 201.557 352.036 200.574 350.452 199.587C345.03 196.21 340.382 187.73 338.299 183.616C336.217 179.502 341.82 180.978 341.82 180.978C341.82 180.978 338.912 179.7 341.627 179.303C344.341 178.906 353.805 194.441 353.805 194.441Z" fill="black"/>
<path d="M337.406 176.795C337.406 176.795 335.711 179.964 337.794 184.078C339.876 188.192 344.525 196.672 349.946 200.049C355.368 203.426 363.124 206.753 363.124 206.753C363.124 206.753 363.86 202.841 365.102 202.401L353.3 194.903C353.3 194.903 344.456 175.214 341.742 175.611C340.246 175.803 338.786 176.202 337.406 176.795Z" fill="#575A89"/>
<path d="M335.437 257.57C330.712 257.57 326.093 256.21 322.164 253.662C318.235 251.114 315.173 247.493 313.365 243.256C311.557 239.02 311.084 234.358 312.006 229.86C312.928 225.362 315.203 221.231 318.544 217.988C321.885 214.745 326.142 212.537 330.776 211.642C335.41 210.748 340.214 211.207 344.579 212.962C348.944 214.717 352.675 217.688 355.3 221.501C357.925 225.314 359.326 229.797 359.326 234.383C359.319 240.531 356.8 246.424 352.321 250.771C347.843 255.118 341.77 257.563 335.437 257.57ZM335.437 211.701C330.814 211.701 326.296 213.031 322.453 215.523C318.609 218.016 315.614 221.558 313.845 225.703C312.076 229.848 311.613 234.408 312.515 238.808C313.417 243.208 315.643 247.25 318.911 250.422C322.18 253.594 326.344 255.755 330.877 256.63C335.411 257.505 340.11 257.056 344.38 255.339C348.651 253.622 352.3 250.715 354.868 246.985C357.436 243.255 358.807 238.869 358.807 234.383C358.8 228.37 356.336 222.604 351.954 218.352C347.573 214.099 341.633 211.708 335.437 211.701Z" fill="#3F3D56"/>
<path d="M335.437 238.668C334.564 238.668 333.71 238.416 332.984 237.946C332.258 237.475 331.692 236.806 331.358 236.023C331.024 235.24 330.937 234.378 331.107 233.547C331.277 232.716 331.698 231.953 332.315 231.354C332.933 230.754 333.719 230.346 334.575 230.181C335.432 230.016 336.319 230.101 337.126 230.425C337.933 230.749 338.622 231.298 339.107 232.003C339.592 232.707 339.851 233.536 339.851 234.383C339.85 235.519 339.384 236.608 338.557 237.411C337.729 238.215 336.607 238.666 335.437 238.668ZM335.437 230.603C334.666 230.603 333.913 230.825 333.273 231.24C332.632 231.655 332.133 232.246 331.838 232.937C331.543 233.627 331.466 234.387 331.616 235.121C331.767 235.854 332.138 236.528 332.682 237.056C333.227 237.585 333.921 237.945 334.677 238.091C335.432 238.237 336.216 238.162 336.927 237.876C337.639 237.59 338.247 237.105 338.675 236.484C339.103 235.862 339.332 235.131 339.332 234.383C339.331 233.381 338.92 232.42 338.19 231.711C337.459 231.003 336.469 230.604 335.437 230.603Z" fill="#3F3D56"/>
<path d="M334.917 211.448H334.398V185.49H320.895V184.986H334.917V211.448Z" fill="#3F3D56"/>
<path d="M365.818 219.766H354.254V220.27H365.818V219.766Z" fill="#3F3D56"/>
<path d="M360.625 202.376H334.138V202.88H360.625V202.376Z" fill="#3F3D56"/>
<path d="M379.452 249.585L365.582 220.122L366.055 219.913L379.71 248.92L392.198 243.479L392.411 243.938L379.452 249.585Z" fill="#3F3D56"/>
<path d="M322.193 186.246C326.209 186.246 329.464 185.795 329.464 185.238C329.464 184.681 326.209 184.23 322.193 184.23C318.178 184.23 314.922 184.681 314.922 185.238C314.922 185.795 318.178 186.246 322.193 186.246Z" fill="#3F3D56"/>
<path d="M117.249 364.63C126.327 363.48 135.056 362.503 143.435 361.699L140.212 356.454C141.332 356.151 146.183 359.187 146.183 359.187L142.086 344.019C147.685 344.629 150.289 360.099 150.289 360.099L156.638 354.947L153.511 360.783C179.151 358.609 201.275 357.939 219.873 358.107L217.114 353.618C218.234 353.315 223.085 356.351 223.085 356.351L218.988 341.183C224.587 341.793 227.191 357.263 227.191 357.263L233.54 352.111L230.228 358.292C245.814 358.713 258.514 359.715 268.311 360.806C265.56 353.83 255.941 347.119 255.941 347.119C263.339 348.994 267.187 352.043 269.177 354.869C269.573 340.425 266.852 326.06 261.189 312.697C261.189 312.697 276.104 340.003 273.853 358.201L273.567 361.433C286.556 363.087 293.074 364.733 293.074 364.733L117.249 364.63Z" fill="#3F3D56"/>
<path d="M205.241 375.052L204.303 385.525L200.081 386.435L199.143 383.704C199.143 383.704 200.785 376.191 200.785 374.825L205.241 375.052Z" fill="#A0616A"/>
<path d="M193.513 367.767C193.513 367.767 195.39 372.32 196.093 372.776C196.797 373.231 193.982 379.15 193.982 379.15L189.76 378.467C189.76 378.467 191.167 373.686 189.995 370.954L193.513 367.767Z" fill="#A0616A"/>
<path d="M194.803 370.385C194.803 370.385 196.562 370.954 197.266 373.459C197.553 374.356 197.788 375.268 197.97 376.191L196.797 378.695H196.093C196.093 378.695 194.92 382.565 195.155 383.931C195.39 385.297 193.513 390.533 190.229 390.306C186.945 390.078 187.649 386.208 187.649 386.208L189.291 378.24C189.291 378.24 189.291 376.191 189.76 376.191C190.229 376.191 193.982 376.874 193.982 376.874V377.557C193.982 377.557 196.68 374.028 194.803 370.385Z" fill="#2F2E41"/>
<path d="M200.519 383.618V382.252C200.519 382.252 205.444 382.935 205.444 383.618V385.212C205.444 385.212 209.667 393.863 204.975 393.863C200.284 393.863 199.346 392.042 199.346 392.042V389.538C199.346 389.538 197 388.399 197 387.716C197 387.033 199.289 381 199.289 381C199.289 381 199.346 384.529 200.519 383.618Z" fill="#2F2E41"/>
<path d="M206.414 271.694C210.56 271.694 213.92 268.432 213.92 264.409C213.92 260.385 210.56 257.124 206.414 257.124C202.269 257.124 198.908 260.385 198.908 264.409C198.908 268.432 202.269 271.694 206.414 271.694Z" fill="#A0616A"/>
<path d="M209.346 269.987C209.346 269.987 208.408 274.312 208.408 274.767C208.408 275.223 203.951 277.272 203.951 277.272L199.964 276.589L198.556 272.491C198.556 272.491 200.902 269.076 200.902 267.71L209.346 269.987Z" fill="#A0616A"/>
<path d="M208.718 272.988C208.718 272.988 206.297 276.816 202.778 275.678C201.8 275.39 200.94 274.809 200.322 274.018C199.704 273.228 199.359 272.268 199.337 271.276L187.766 275.223L189.877 291.842L188.001 311.193L189.408 313.698H210.05C210.05 313.698 210.754 310.283 210.988 310.283C211.223 310.283 211.692 309.6 211.457 309.372C211.223 309.144 210.754 308.917 210.988 308.234C211.223 307.551 211.457 300.038 211.457 300.038L218.494 280.231L208.718 272.988Z" fill="#3F3D56"/>
<path d="M217.674 316.316L213.451 321.78C213.451 321.78 212.748 316.088 211.809 315.86L214.155 314.267L217.674 316.316Z" fill="#A0616A"/>
<path d="M170.76 311.99C170.76 311.99 164.427 315.86 165.131 318.365C165.834 320.869 173.106 314.039 173.106 313.811C173.106 313.584 170.76 311.99 170.76 311.99Z" fill="#A0616A"/>
<path d="M210.167 311.99H210.636L211.34 315.177C212.447 316.214 213.215 317.544 213.549 319.001C213.883 320.459 213.767 321.979 213.217 323.373L209.464 347.278L208.995 375.052L204.772 376.191L200.081 375.28L198.908 338.171C198.908 338.171 197.266 334.756 197.97 333.618C198.674 332.48 197.735 332.707 197.735 332.707L192.809 345.912C192.809 345.912 194.451 350.237 192.809 351.603C192.809 351.603 193.044 352.286 192.809 352.514C192.575 352.742 191.402 353.652 191.871 354.108C192.34 354.563 192.575 354.107 192.575 354.79C192.575 355.473 194.921 361.165 193.982 368.45L190.933 373.003L188.118 371.41L182.958 357.295C182.958 357.295 184.13 355.246 182.958 354.79C181.785 354.335 181.55 353.88 182.019 353.197C182.488 352.514 182.488 350.237 181.785 349.099C181.081 347.961 181.785 346.139 181.785 346.139L184.365 323.146C184.365 323.146 183.192 316.999 187.18 313.811L187.884 311.307C187.884 311.307 193.748 315.405 210.167 311.99Z" fill="#2F2E41"/>
<path d="M212.924 258.539C212.924 258.539 210.54 253.528 205.973 254.684C201.405 255.841 198.823 257.576 198.625 259.31C198.527 260.756 198.56 262.207 198.724 263.647C198.724 263.647 199.22 260.081 202.398 260.852C205.575 261.623 210.54 261.045 210.54 261.045L211.335 267.984C211.335 267.984 212.229 266.731 213.222 267.502C214.214 268.273 216.101 260.081 212.924 258.539Z" fill="#2F2E41"/>
<path d="M214.976 280.231H218.495C219.481 281.174 220.243 282.315 220.729 283.573C221.215 284.831 221.413 286.177 221.309 287.516L222.951 300.948C222.951 300.948 222.951 307.551 220.136 312.331L217.087 318.023C217.087 318.023 215.914 314.836 212.396 315.291L214.272 310.51V309.372C214.558 309.025 214.795 308.642 214.976 308.234C214.976 308.006 214.038 308.006 214.741 307.551C215.445 307.095 216.149 302.542 216.149 302.542C216.056 302.141 215.898 301.756 215.68 301.404C215.445 301.176 215.914 300.493 215.914 300.493L215.445 299.81L212.396 288.655L214.976 280.231Z" fill="#3F3D56"/>
<path d="M191.754 274.54L187.766 275.223C186.336 276.661 185.219 278.365 184.482 280.231L182.606 288.427L179.556 294.346C179.556 294.346 176.038 297.761 173.458 305.502L169.705 312.332L173.692 314.608C173.692 314.608 184.717 302.087 186.124 297.761L192.223 286.378L191.754 274.54Z" fill="#3F3D56"/>
<path d="M225.884 37.6289C224.264 37.6289 222.681 37.1627 221.334 36.2893C219.987 35.416 218.938 34.1746 218.318 32.7223C217.698 31.2699 217.536 29.6718 217.852 28.13C218.168 26.5882 218.948 25.172 220.093 24.0604C221.238 22.9488 222.697 22.1918 224.286 21.8851C225.875 21.5785 227.521 21.7359 229.018 22.3374C230.514 22.939 231.793 23.9578 232.693 25.2648C233.593 26.5719 234.073 28.1086 234.073 29.6806C234.07 31.7879 233.207 33.8081 231.672 35.2982C230.136 36.7883 228.055 37.6264 225.884 37.6289ZM225.884 23.0571C224.534 23.0571 223.214 23.4456 222.092 24.1734C220.97 24.9012 220.095 25.9356 219.579 27.1459C219.062 28.3562 218.927 29.688 219.19 30.9728C219.454 32.2577 220.104 33.4379 221.058 34.3642C222.012 35.2905 223.228 35.9213 224.552 36.1769C225.876 36.4325 227.248 36.3013 228.495 35.8C229.742 35.2986 230.808 34.4497 231.558 33.3605C232.308 32.2712 232.708 30.9906 232.708 29.6806C232.706 27.9246 231.986 26.241 230.707 24.9993C229.428 23.7575 227.693 23.0591 225.884 23.0571Z" fill="#3F3D56"/>
<path d="M291.28 118.628H277.808V105.552H291.28V118.628ZM278.844 117.622H290.244V106.558H278.844V117.622Z" fill="#3F3D56"/>
<path d="M9.18913 235.917L0 226.355L9.85186 217.436L19.041 226.998L9.18913 235.917ZM1.4647 226.404L9.24011 234.495L17.5763 226.949L9.80088 218.858L1.4647 226.404Z" fill="#3F3D56"/>
<path d="M168.968 310.278L169.946 311.527C169.955 311.538 169.959 311.553 169.957 311.567C169.955 311.581 169.947 311.594 169.935 311.603L169.903 311.627L174.999 318.134C175.14 318.314 175.201 318.541 175.17 318.765C175.138 318.989 175.016 319.192 174.831 319.329L170.642 322.419C170.55 322.487 170.445 322.536 170.333 322.565C170.222 322.593 170.106 322.6 169.991 322.585C169.877 322.57 169.767 322.533 169.667 322.476C169.568 322.42 169.48 322.345 169.411 322.256L164.494 315.977L164.471 315.994C164.462 316 164.452 316.003 164.441 316.002C164.431 316 164.421 315.995 164.415 315.987L163.858 315.276C163.855 315.272 163.853 315.267 163.852 315.262C163.85 315.258 163.85 315.252 163.851 315.247C163.851 315.242 163.853 315.238 163.856 315.233C163.858 315.229 163.862 315.225 163.866 315.222L163.889 315.205L163.679 314.937L163.656 314.954C163.647 314.961 163.636 314.963 163.625 314.962C163.614 314.96 163.604 314.955 163.598 314.946L163.049 314.245C163.042 314.237 163.039 314.226 163.04 314.215C163.042 314.205 163.048 314.195 163.056 314.189L163.08 314.171L162.794 313.806L162.77 313.823C162.766 313.826 162.762 313.828 162.757 313.829C162.752 313.831 162.747 313.831 162.743 313.83C162.738 313.83 162.733 313.828 162.729 313.826C162.725 313.823 162.721 313.82 162.718 313.816L162.419 313.434C162.413 313.426 162.41 313.417 162.411 313.407C162.413 313.398 162.418 313.389 162.425 313.383L162.449 313.366L161.842 312.591C161.701 312.411 161.64 312.184 161.671 311.96C161.703 311.736 161.825 311.533 162.01 311.397L166.199 308.306C166.385 308.17 166.619 308.11 166.85 308.14C167.08 308.171 167.289 308.289 167.43 308.469L168.857 310.291L168.889 310.267C168.901 310.258 168.916 310.255 168.93 310.257C168.945 310.258 168.959 310.266 168.968 310.278Z" fill="#3F3D56"/>
<path d="M164.564 310.064L163.913 310.544C163.877 310.57 163.87 310.62 163.897 310.655L163.919 310.682C163.946 310.717 163.998 310.724 164.034 310.698L164.684 310.218C164.72 310.191 164.727 310.141 164.7 310.106L164.678 310.079C164.651 310.044 164.6 310.037 164.564 310.064Z" fill="#E6E8EC"/>
<path d="M164.897 310.048C164.96 310.048 165.011 309.998 165.011 309.938C165.011 309.877 164.96 309.828 164.897 309.828C164.835 309.828 164.784 309.877 164.784 309.938C164.784 309.998 164.835 310.048 164.897 310.048Z" fill="#E6E8EC"/>
<path d="M167.201 308.85L174.708 318.437C174.757 318.499 174.791 318.571 174.808 318.648C174.826 318.724 174.826 318.803 174.808 318.88C174.78 319.005 174.707 319.117 174.601 319.195L170.591 322.153C170.52 322.206 170.436 322.241 170.348 322.256C170.327 322.259 170.307 322.262 170.286 322.263C170.194 322.268 170.103 322.251 170.021 322.214C169.938 322.177 169.865 322.12 169.81 322.05L162.303 312.463C162.259 312.407 162.226 312.342 162.208 312.274C162.189 312.205 162.184 312.133 162.194 312.063C162.204 311.992 162.228 311.925 162.265 311.863C162.302 311.802 162.351 311.748 162.409 311.705L163.01 311.262L163.068 311.337C163.105 311.384 163.15 311.423 163.202 311.452C163.254 311.482 163.312 311.501 163.371 311.509C163.431 311.517 163.492 311.513 163.55 311.498C163.609 311.484 163.663 311.458 163.711 311.422L165.751 309.918C165.799 309.882 165.839 309.838 165.869 309.788C165.9 309.737 165.92 309.681 165.928 309.623C165.936 309.565 165.932 309.506 165.917 309.45C165.901 309.393 165.875 309.34 165.838 309.294L165.78 309.219L166.419 308.747C166.478 308.704 166.544 308.673 166.615 308.655C166.686 308.636 166.759 308.632 166.832 308.642C166.905 308.651 166.974 308.675 167.038 308.71C167.101 308.746 167.156 308.794 167.201 308.85Z" fill="#6C63FF"/>
<path d="M479.81 146.359V154.635C479.81 154.635 480.492 163.904 484.244 168.539C484.244 168.539 490.383 176.981 491.236 175.16L490.186 169.166L486.631 165.891L484.755 155.628L484.244 146.359H479.81Z" fill="#FFB8B8"/>
<path d="M517.5 221.176V227.301L512.384 229.122V222.004L517.5 221.176Z" fill="#FFB8B8"/>
<path d="M507.097 220.514L510.508 227.963L505.733 229.949L504.709 222.666L507.097 220.514Z" fill="#FFB8B8"/>
<path d="M515.624 163.408C515.624 163.408 522.446 223.163 519.888 223.328C517.33 223.494 512.384 226.639 512.384 224.487C512.384 222.335 508.461 194.361 508.461 194.361L504.709 179.961V199.824L508.632 222.335C508.632 222.335 504.88 227.135 502.151 224.321L496.353 202.307C496.353 202.307 488.678 168.87 489.019 166.222C489.019 166.222 506.585 151.656 515.624 163.408Z" fill="#2F2E41"/>
<path d="M514.26 227.632C514.26 227.632 515.624 224.818 518.694 226.639L521.252 229.618C521.252 229.618 527.848 234.919 523.168 236.055C518.344 237.226 515.454 235.98 515.454 235.98C514.986 235.708 514.462 235.538 513.919 235.484C513.237 235.484 511.702 234.325 511.702 233.994C511.702 233.663 512.213 227.797 512.213 227.797C512.407 227.706 512.624 227.673 512.837 227.702C513.049 227.732 513.248 227.823 513.407 227.963C513.919 228.46 514.26 227.632 514.26 227.632Z" fill="#2F2E41"/>
<path d="M504.198 226.639C504.198 226.639 507.438 224.156 508.973 226.97C508.973 226.97 509.939 227.301 510.053 226.97C510.167 226.639 511.02 226.473 511.02 228.294C511.02 230.115 511.946 234.656 511.093 234.822C510.24 234.987 509.388 235.484 509.558 236.146C509.729 236.808 508.632 236.901 504.709 236.736C500.787 236.57 500.616 235.081 500.616 235.081C500.616 235.081 500.616 232.929 501.64 231.77C502.663 230.611 504.198 226.639 504.198 226.639Z" fill="#2F2E41"/>
<path d="M497.888 118.219C497.888 118.219 497.035 124.344 502.492 126.496C507.95 128.647 490.383 135.765 488.678 131.627C486.973 127.489 489.019 126.165 489.019 126.165C489.019 126.165 490.725 124.509 489.19 120.04L497.888 118.219Z" fill="#FFB8B8"/>
<path d="M492.43 122.523C496.574 122.523 499.934 119.262 499.934 115.24C499.934 111.218 496.574 107.957 492.43 107.957C488.286 107.957 484.926 111.218 484.926 115.24C484.926 119.262 488.286 122.523 492.43 122.523Z" fill="#FFB8B8"/>
<path d="M501.128 128.482C501.128 128.482 496.012 131.13 491.066 129.144C486.12 127.158 486.29 135.765 486.29 135.765L488.849 142.221L506.585 140.565L505.392 130.634L501.128 128.482Z" fill="#F2F2F2"/>
<path d="M498.586 122.818C499.494 123.005 500.348 123.388 501.083 123.939C501.818 124.489 502.416 125.194 502.833 125.999L511.02 128.482L513.066 131.296L510.678 151.656C510.678 151.656 515.113 155.794 515.113 158.111C515.113 160.428 520.57 168.374 517.841 167.38C515.113 166.387 510.167 162.911 510.167 162.911C510.167 162.911 497.717 163.408 493.794 166.718C489.872 170.029 488.337 169.036 488.337 169.036C488.337 169.036 484.244 151.821 484.073 149.173C483.903 146.524 479.127 130.634 479.127 130.634L487.655 125.999L489.827 123.607L495.841 132.951L501.298 126.496C501.298 126.496 498.602 124.437 498.586 122.818Z" fill="#D0CDE1"/>
<path d="M515.624 144.041L516.648 149.338C516.648 149.338 521.252 165.891 520.57 171.519C520.57 171.519 521.082 184.099 518.183 182.609C515.283 181.119 516.818 172.015 516.818 172.015L512.725 155.628L510.508 146.028L515.624 144.041Z" fill="#FFB8B8"/>
<path d="M511.361 130.303L513.066 131.296C513.066 131.296 519.547 144.372 518.012 145.366C516.477 146.359 509.826 148.511 509.826 148.511L511.361 130.303Z" fill="#D0CDE1"/>
<path d="M483.221 130.634L479.213 130.551L478.275 132.124L479.468 148.18L485.608 149.504L483.221 130.634Z" fill="#D0CDE1"/>
<path d="M498.541 109.08L499.893 108.603C499.893 108.603 497.065 105.858 493.13 106.097L494.237 105.023C494.237 105.023 491.532 104.068 489.073 106.574C487.62 107.937 486.368 109.489 485.352 111.184H483.903L484.508 112.358L482.392 113.531L484.564 113.321C484.358 114.334 484.429 115.382 484.769 116.36L485.261 117.673C485.261 117.673 487.228 113.854 487.228 113.376V114.57C487.228 114.57 488.581 113.496 488.581 112.78L489.319 113.615L489.688 112.302L494.237 113.615L493.499 112.541L496.327 112.899L495.221 111.586C495.221 111.586 498.418 113.138 498.541 114.451C498.712 115.498 499.038 116.517 499.508 117.474L500.531 116.316C500.531 116.316 502.107 110.87 498.541 109.08Z" fill="#2F2E41"/>
<path d="M498.74 116.812C499.07 116.812 499.337 116.145 499.337 115.323C499.337 114.5 499.07 113.833 498.74 113.833C498.411 113.833 498.143 114.5 498.143 115.323C498.143 116.145 498.411 116.812 498.74 116.812Z" fill="#FFB8B8"/>
<path d="M537.963 203.9C529.109 209.882 526.292 220.81 526.292 220.81C526.292 220.81 537.829 222.037 546.682 216.055C555.535 210.072 558.353 199.145 558.353 199.145C558.353 199.145 546.816 197.917 537.963 203.9Z" fill="#3F3D56"/>
<path d="M541.466 206.949C536.989 216.475 526.417 221.124 526.417 221.124C526.417 221.124 523.105 210.329 527.582 200.803C532.059 191.277 542.63 186.628 542.63 186.628C542.63 186.628 545.942 197.423 541.466 206.949Z" fill="#6C63FF"/>
<path d="M159.74 299.383C160.871 299.383 161.787 298.493 161.787 297.395C161.787 296.298 160.871 295.408 159.74 295.408C158.609 295.408 157.693 296.298 157.693 297.395C157.693 298.493 158.609 299.383 159.74 299.383Z" fill="#F2F2F2"/>
<path d="M150.868 288.785C154.637 288.785 157.693 285.82 157.693 282.161C157.693 278.503 154.637 275.538 150.868 275.538C147.099 275.538 144.044 278.503 144.044 282.161C144.044 285.82 147.099 288.785 150.868 288.785Z" fill="#F2F2F2"/>
<path d="M138.584 264.278C145.745 264.278 151.551 258.644 151.551 251.693C151.551 244.743 145.745 239.109 138.584 239.109C131.423 239.109 125.618 244.743 125.618 251.693C125.618 258.644 131.423 264.278 138.584 264.278Z" fill="#6C63FF"/>
<path d="M105.574 70.4617C99.462 71.3836 93.597 73.4647 88.3139 76.5865C83.0307 79.7082 78.4328 83.8093 74.7826 88.6557C71.1325 93.502 68.5016 98.9987 67.0401 104.832C65.5787 110.665 65.3154 116.721 66.2652 122.653C70.2596 147.6 129.984 222.914 129.984 222.914C129.984 222.914 163.342 133.561 159.348 108.613C158.398 102.681 156.254 96.989 153.037 91.8614C149.821 86.7337 145.595 82.2711 140.602 78.7284C135.609 75.1857 129.945 72.6323 123.935 71.2139C117.925 69.7955 111.686 69.5399 105.574 70.4617ZM116.604 139.348C111.771 140.077 106.824 139.398 102.389 137.399C97.9533 135.399 94.2285 132.167 91.6853 128.113C89.1421 124.059 87.8948 119.363 88.101 114.621C88.3072 109.878 89.9578 105.302 92.8439 101.47C95.7301 97.6379 99.7222 94.7226 104.315 93.0927C108.909 91.4627 113.897 91.1914 118.649 92.3129C123.401 93.4344 127.704 95.8985 131.013 99.3934C134.322 102.888 136.49 107.257 137.241 111.948C138.248 118.237 136.639 124.657 132.769 129.796C128.899 134.934 123.084 138.37 116.604 139.348Z" fill="#6C63FF"/>
</g>
<defs>
<clipPath id="clip0_304_3325">
<rect width="573" height="435" fill="white"/>
</clipPath>
</defs>
</svg>
