<svg width="45" height="45" viewBox="0 0 45 45" fill="none" xmlns="http://www.w3.org/2000/svg">
<path d="M36.75 39.375C36.75 39.7892 37.0858 40.125 37.5 40.125C37.9142 40.125 38.25 39.7892 38.25 39.375H36.75ZM21.75 39.375C21.75 39.7892 22.0858 40.125 22.5 40.125C22.9142 40.125 23.25 39.7892 23.25 39.375H21.75ZM16.875 21.375C17.2892 21.375 17.625 21.0392 17.625 20.625C17.625 20.2108 17.2892 19.875 16.875 19.875V21.375ZM7.5 19.875C7.08579 19.875 6.75 20.2108 6.75 20.625C6.75 21.0392 7.08579 21.375 7.5 21.375V19.875ZM36.75 16.875C36.75 17.2892 37.0858 17.625 37.5 17.625C37.9142 17.625 38.25 17.2892 38.25 16.875H36.75ZM15 40.125C15.4142 40.125 15.75 39.7892 15.75 39.375C15.75 38.9608 15.4142 38.625 15 38.625V40.125ZM28.875 5.625C28.875 5.21079 28.5392 4.875 28.125 4.875C27.7108 4.875 27.375 5.21079 27.375 5.625H28.875ZM27.375 13.125C27.375 13.5392 27.7108 13.875 28.125 13.875C28.5392 13.875 28.875 13.5392 28.875 13.125H27.375ZM17.625 5.625C17.625 5.21079 17.2892 4.875 16.875 4.875C16.4608 4.875 16.125 5.21079 16.125 5.625H17.625ZM16.125 13.125C16.125 13.5392 16.4608 13.875 16.875 13.875C17.2892 13.875 17.625 13.5392 17.625 13.125H16.125ZM33 24.375C33 26.0319 31.6569 27.375 30 27.375V28.875C32.4853 28.875 34.5 26.8603 34.5 24.375H33ZM30 27.375C28.3431 27.375 27 26.0319 27 24.375H25.5C25.5 26.8603 27.5147 28.875 30 28.875V27.375ZM27 24.375C27 22.7181 28.3431 21.375 30 21.375V19.875C27.5147 19.875 25.5 21.8897 25.5 24.375H27ZM30 21.375C31.6569 21.375 33 22.7181 33 24.375H34.5C34.5 21.8897 32.4853 19.875 30 19.875V21.375ZM26.25 34.5H33.75V33H26.25V34.5ZM36.75 37.5V39.375H38.25V37.5H36.75ZM23.25 39.375V37.5H21.75V39.375H23.25ZM33.75 34.5C35.4069 34.5 36.75 35.8431 36.75 37.5H38.25C38.25 35.0147 36.2353 33 33.75 33V34.5ZM26.25 33C23.7647 33 21.75 35.0147 21.75 37.5H23.25C23.25 35.8431 24.5931 34.5 26.25 34.5V33ZM16.875 19.875H7.5V21.375H16.875V19.875ZM8.25 35.625V13.125H6.75V35.625H8.25ZM11.25 38.625C9.59315 38.625 8.25 37.2819 8.25 35.625H6.75C6.75 38.1103 8.76472 40.125 11.25 40.125V38.625ZM11.25 8.625C8.76472 8.625 6.75 10.6397 6.75 13.125H8.25C8.25 11.4681 9.59315 10.125 11.25 10.125V8.625ZM38.25 16.875V13.125H36.75V16.875H38.25ZM33.75 10.125C35.4069 10.125 36.75 11.4681 36.75 13.125H38.25C38.25 10.6397 36.2353 8.625 33.75 8.625V10.125ZM33.75 8.625H11.25V10.125H33.75V8.625ZM11.25 40.125H15V38.625H11.25V40.125ZM27.375 5.625V13.125H28.875V5.625H27.375ZM16.125 5.625V13.125H17.625V5.625H16.125Z" fill="#001A72"/>
</svg>
