<svg width="45" height="45" viewBox="0 0 45 45" fill="none" xmlns="http://www.w3.org/2000/svg">
<path opacity="0.15" d="M22.5 20.625C25.6066 20.625 28.125 18.1066 28.125 15C28.125 11.8934 25.6066 9.375 22.5 9.375C19.3934 9.375 16.875 11.8934 16.875 15C16.875 18.1066 19.3934 20.625 22.5 20.625Z" fill="#001A72"/>
<path d="M1.875 35.625H1.125C1.125 36.0392 1.46079 36.375 1.875 36.375L1.875 35.625ZM5.625 36.375C6.03921 36.375 6.375 36.0392 6.375 35.625C6.375 35.2108 6.03921 34.875 5.625 34.875V36.375ZM7.68694 27.2126C8.08808 27.1094 8.32957 26.7005 8.22633 26.2993C8.12308 25.8982 7.7142 25.6567 7.31306 25.76L7.68694 27.2126ZM11.0001 21.012C11.3906 21.1501 11.8191 20.9454 11.9571 20.5548C12.0952 20.1643 11.8905 19.7358 11.4999 19.5978L11.0001 21.012ZM11.4999 10.4022C11.8905 10.2642 12.0952 9.83567 11.9571 9.44513C11.8191 9.05459 11.3906 8.8499 11.0001 8.98793L11.4999 10.4022ZM43.125 35.625V36.375C43.5392 36.375 43.875 36.0392 43.875 35.625H43.125ZM39.375 34.875C38.9608 34.875 38.625 35.2108 38.625 35.625C38.625 36.0392 38.9608 36.375 39.375 36.375V34.875ZM37.6869 25.76C37.2858 25.6567 36.8769 25.8982 36.7737 26.2993C36.6704 26.7005 36.9119 27.1094 37.3131 27.2126L37.6869 25.76ZM33.9999 8.98793C33.6094 8.8499 33.1809 9.05459 33.0429 9.44513C32.9048 9.83567 33.1095 10.2642 33.5001 10.4022L33.9999 8.98793ZM33.5001 19.5978C33.1095 19.7358 32.9048 20.1643 33.0429 20.5548C33.1809 20.9454 33.6094 21.1501 33.9999 21.012L33.5001 19.5978ZM33.75 35.625V36.375C34.1642 36.375 34.5 36.0392 34.5 35.625H33.75ZM11.25 35.625H10.5C10.5 36.0392 10.8358 36.375 11.25 36.375V35.625ZM1.125 33.75V35.625H2.625V33.75H1.125ZM1.875 36.375H5.625V34.875H1.875V36.375ZM2.625 33.75C2.625 30.6058 4.77546 27.962 7.68694 27.2126L7.31306 25.76C3.75494 26.6758 1.125 29.9048 1.125 33.75H2.625ZM6.75 15C6.75 17.7769 8.52504 20.1373 11.0001 21.012L11.4999 19.5978C9.60549 18.9282 8.25 17.1214 8.25 15H6.75ZM11.0001 8.98793C8.52504 9.86273 6.75 12.2231 6.75 15H8.25C8.25 12.8786 9.60549 11.0718 11.4999 10.4022L11.0001 8.98793ZM42.375 33.75V35.625H43.875V33.75H42.375ZM43.125 34.875H39.375V36.375H43.125V34.875ZM43.875 33.75C43.875 29.9048 41.2451 26.6758 37.6869 25.76L37.3131 27.2126C40.2245 27.962 42.375 30.6058 42.375 33.75H43.875ZM33.5001 10.4022C35.3945 11.0718 36.75 12.8786 36.75 15H38.25C38.25 12.2231 36.475 9.86273 33.9999 8.98793L33.5001 10.4022ZM36.75 15C36.75 17.1214 35.3945 18.9282 33.5001 19.5978L33.9999 21.012C36.475 20.1373 38.25 17.7769 38.25 15H36.75ZM18.75 27H26.25V25.5H18.75V27ZM33 33.75V35.625H34.5V33.75H33ZM12 35.625V33.75H10.5V35.625H12ZM26.25 27C29.9779 27 33 30.0221 33 33.75H34.5C34.5 29.1936 30.8063 25.5 26.25 25.5V27ZM18.75 25.5C14.1937 25.5 10.5 29.1936 10.5 33.75H12C12 30.0221 15.0221 27 18.75 27V25.5ZM33.75 34.875H11.25V36.375H33.75V34.875ZM27.375 15C27.375 17.6924 25.1924 19.875 22.5 19.875V21.375C26.0208 21.375 28.875 18.5208 28.875 15H27.375ZM22.5 19.875C19.8076 19.875 17.625 17.6924 17.625 15H16.125C16.125 18.5208 18.9792 21.375 22.5 21.375V19.875ZM17.625 15C17.625 12.3076 19.8076 10.125 22.5 10.125V8.625C18.9792 8.625 16.125 11.4792 16.125 15H17.625ZM22.5 10.125C25.1924 10.125 27.375 12.3076 27.375 15H28.875C28.875 11.4792 26.0208 8.625 22.5 8.625V10.125Z" fill="#001A72"/>
</svg>
